<?xml version="1.0" standalone="no"?>
<!DOCTYPE svg PUBLIC "-//W3C//DTD SVG 20010904//EN"
 "http://www.w3.org/TR/2001/REC-SVG-20010904/DTD/svg10.dtd">
<svg version="1.0" xmlns="http://www.w3.org/2000/svg"
 width="300.000000pt" height="300.000000pt" viewBox="0 0 300.000000 300.000000"
 preserveAspectRatio="xMidYMid meet">
<metadata>
Created by potrace 1.11, written by Peter Selinger 2001-2013
</metadata>
<g transform="translate(0.000000,300.000000) scale(0.100000,-0.100000)"
fill="#000000" stroke="none">
<path d="M1378 2995 c-2 -2 -25 -6 -53 -9 -27 -4 -64 -8 -80 -10 -24 -3 -71
-15 -125 -31 -3 -1 -18 -5 -35 -9 -16 -4 -39 -12 -50 -17 -12 -6 -27 -11 -35
-13 -51 -10 -290 -133 -290 -148 0 -5 -4 -8 -10 -8 -18 0 -130 -91 -208 -169
-83 -82 -146 -151 -137 -151 3 0 -3 -9 -13 -19 -28 -32 -39 -46 -52 -72 -7
-13 -16 -26 -20 -29 -8 -5 -53 -92 -53 -100 1 -3 -8 -17 -18 -31 -10 -14 -16
-29 -12 -33 3 -3 2 -6 -4 -6 -9 0 -14 -11 -28 -62 -2 -5 -4 -10 -5 -13 -1 -3
-3 -8 -5 -12 -1 -5 -5 -15 -8 -23 -14 -32 -36 -107 -43 -145 -10 -50 -11 -54
-14 -57 -28 -36 -32 -501 -5 -618 6 -22 14 -67 19 -95 1 -5 5 -15 9 -21 3 -6
8 -25 9 -43 1 -17 6 -31 10 -31 4 0 8 -7 8 -15 0 -45 145 -343 171 -353 5 -2
9 -9 9 -15 0 -7 10 -24 23 -39 12 -14 38 -46 57 -69 70 -86 184 -193 265 -249
28 -19 52 -37 55 -40 13 -15 210 -120 235 -126 6 -2 40 -14 78 -28 37 -14 67
-22 67 -19 0 3 6 1 13 -4 6 -6 30 -14 52 -18 46 -10 54 -12 58 -15 1 -1 16 -3
32 -5 17 -1 30 -3 30 -4 0 -14 316 -20 415 -7 95 11 94 11 108 20 6 4 12 5 12
2 0 -2 33 5 73 16 39 11 78 21 85 21 6 0 12 5 12 10 0 6 3 8 6 4 4 -3 19 0 34
8 15 8 30 11 34 8 3 -4 6 0 6 7 0 7 3 11 6 7 7 -7 197 91 202 104 2 5 8 9 14
9 6 0 26 11 44 25 18 14 38 25 44 25 6 0 9 4 5 9 -3 5 4 13 16 16 21 7 205
184 253 245 16 19 40 53 55 75 14 22 33 45 41 52 8 7 12 13 8 13 -4 0 8 27 27
59 46 77 107 220 99 232 -3 5 -1 9 4 9 10 0 59 192 69 276 10 76 10 445 0 504
-4 25 -16 77 -26 117 -10 40 -16 74 -13 77 3 4 0 6 -6 6 -7 0 -12 9 -12 19 0
11 -9 41 -21 68 -11 26 -23 57 -25 68 -2 11 -8 21 -14 23 -5 2 -10 12 -10 22
0 9 -7 23 -15 30 -8 7 -15 21 -15 31 0 11 -4 19 -8 19 -5 0 -14 16 -22 35 -8
19 -17 35 -22 35 -4 0 -8 6 -8 14 0 8 -4 16 -8 18 -5 2 -20 20 -35 42 -39 59
-199 236 -212 236 -2 0 -18 14 -36 31 -48 45 -214 151 -299 192 -84 40 -171
73 -182 69 -5 -1 -8 3 -8 10 0 6 -3 9 -6 5 -3 -3 -17 -2 -30 3 -14 6 -35 12
-47 14 -12 3 -33 8 -47 11 -87 21 -145 27 -297 30 -78 1 -144 1 -145 0z"/>
</g>
</svg>
